<?xml version="1.0" standalone="no"?>
<!DOCTYPE svg PUBLIC "-//W3C//DTD SVG 20010904//EN"
 "http://www.w3.org/TR/2001/REC-SVG-20010904/DTD/svg10.dtd">
<svg version="1.0" xmlns="http://www.w3.org/2000/svg"
 width="2224.000000pt" height="1158.000000pt" viewBox="0 0 2224.000000 1158.000000"
 preserveAspectRatio="xMidYMid meet">

<g transform="translate(0.000000,1158.000000) scale(0.100000,-0.100000)"
fill="#8AAEAE" stroke="none">
<path d="M16818 9040 c-47 -14 -94 -48 -121 -87 -49 -71 -57 -112 -57 -289 l0
-164 -6847 -2 -6848 -3 0 -3320 0 -3320 8135 0 8135 0 0 3320 0 3320 -502 3
-503 2 0 158 c0 86 -5 175 -11 197 -17 65 -67 133 -118 163 l-46 27 -595 2
c-327 1 -607 -2 -622 -7z m-178 -1222 c0 -90 5 -179 10 -198 16 -57 65 -127
111 -157 40 -26 50 -28 164 -31 l122 -4 152 -299 c84 -164 161 -304 171 -309
24 -13 66 -13 91 0 11 7 81 134 169 310 l150 300 122 0 c140 0 186 15 238 78
58 70 70 124 70 307 l0 165 245 0 245 0 0 -2805 0 -2805 -7620 0 -7620 0 0
2805 0 2805 6590 0 6590 0 0 -162z"/>
<path d="M17376 6722 c-19 -31 -48 -173 -53 -257 -7 -127 9 -227 51 -311 l33
-64 -524 0 -523 0 0 -925 0 -925 863 0 c950 0 907 -3 1029 62 73 39 161 131
196 205 25 54 27 68 30 220 4 194 -6 236 -75 313 -50 56 -114 93 -195 114
l-51 13 46 6 c97 13 194 81 243 169 28 51 29 58 32 210 4 177 -7 238 -59 320
-56 88 -160 163 -274 198 -25 8 -142 15 -317 19 l-276 6 -39 31 c-61 50 -86
122 -91 274 -3 87 1 153 12 218 9 50 16 97 16 102 0 12 -67 14 -74 2z m432
-1125 c44 -24 76 -92 66 -143 -9 -49 -61 -99 -110 -107 -22 -4 -204 -7 -406
-7 l-368 0 0 133 c0 74 3 137 7 141 4 4 181 6 393 4 350 -3 388 -5 418 -21z
m21 -661 c76 -73 54 -189 -42 -225 -18 -7 -165 -11 -413 -11 l-384 0 0 135 0
136 404 -3 405 -3 30 -29z"/>
<path d="M4021 6139 c-78 -13 -183 -72 -241 -136 -90 -98 -130 -213 -130 -373
l0 -89 33 -5 c17 -3 141 -7 273 -10 l242 -4 5 39 c6 47 27 82 64 106 25 17 67
18 554 18 518 0 528 0 556 -21 61 -45 79 -124 43 -194 -36 -71 -32 -70 -470
-70 l-390 0 0 -209 0 -210 394 -3 c381 -3 396 -4 423 -24 82 -60 82 -195 -1
-245 -29 -18 -60 -19 -554 -19 -449 0 -527 2 -552 15 -34 17 -70 81 -70 121
l0 27 -197 -6 c-108 -4 -232 -7 -276 -7 l-79 0 4 -122 c4 -95 10 -137 28 -185
34 -91 106 -182 181 -232 121 -79 74 -75 908 -79 436 -2 777 1 823 7 195 23
340 160 378 357 7 36 10 123 8 220 -3 144 -6 163 -27 204 -40 76 -79 118 -140
148 l-58 29 49 22 c61 28 111 79 146 150 25 53 27 66 30 212 2 85 -1 182 -7
214 -34 184 -174 327 -347 355 -74 12 -1528 11 -1603 -1z"/>
<path d="M8750 5175 l0 -945 315 0 315 0 0 655 0 655 249 0 c247 0 250 0 265
-22 14 -20 16 -99 16 -655 l0 -633 315 0 315 0 0 640 0 640 254 0 c252 0 255
0 270 -22 14 -19 16 -77 16 -429 0 -223 3 -501 7 -617 l6 -212 309 0 308 0 0
703 c0 386 -4 727 -9 757 -33 202 -168 361 -350 414 -49 14 -192 16 -1328 16
l-1273 0 0 -945z"/>
<path d="M6170 5165 l0 -936 818 3 817 3 88 28 c339 106 579 368 649 707 17
80 19 123 15 270 -3 157 -7 184 -32 260 -33 103 -71 180 -120 246 -155 206
-357 320 -613 344 -61 6 -430 10 -864 10 l-758 0 0 -935z m1778 303 c9 -9 12
-95 12 -325 0 -299 -1 -313 -19 -323 -13 -6 -213 -10 -580 -10 l-561 0 0 335
0 335 568 0 c428 0 571 -3 580 -12z"/>
<path d="M11915 6088 c-3 -7 -4 -427 -3 -933 l3 -920 948 -3 947 -2 0 245 0
245 -625 0 -625 0 0 623 0 622 -23 40 c-14 24 -40 50 -67 65 -44 25 -50 25
-297 28 -204 3 -254 1 -258 -10z"/>
<path d="M14376 6044 c-143 -35 -269 -134 -329 -261 l-32 -68 -3 -742 -2 -743
312 0 313 0 -3 230 -3 230 440 0 441 0 0 -230 0 -230 310 0 310 0 0 915 0 915
-847 -1 c-696 -1 -859 -3 -907 -15z m1134 -669 l0 -185 -430 0 -430 0 0 128
c0 145 11 181 69 219 34 23 36 23 412 23 l379 0 0 -185z"/>
</g>
</svg>
